<?xml version="1.0" standalone="no"?>
<!DOCTYPE svg PUBLIC "-//W3C//DTD SVG 20010904//EN"
 "http://www.w3.org/TR/2001/REC-SVG-20010904/DTD/svg10.dtd">
<svg version="1.0" xmlns="http://www.w3.org/2000/svg"
 width="388.000000pt" height="388.000000pt" viewBox="0 0 388.000000 388.000000"
 preserveAspectRatio="xMidYMid meet">
<metadata>
Created by potrace 1.11, written by Peter Selinger 2001-2013
</metadata>
<g transform="translate(0.000000,388.000000) scale(0.100000,-0.100000)"
fill="#000000" stroke="none">
<path d="M307 3869 c-96 -23 -182 -94 -226 -188 l-26 -56 0 -1685 0 -1685 26
-56 c34 -72 96 -134 168 -168 l56 -26 1635 0 1635 0 56 26 c72 34 134 96 168
168 l26 56 0 1685 0 1685 -26 56 c-34 72 -96 134 -168 168 l-56 26 -1615 2
c-921 0 -1631 -3 -1653 -8z m3289 -111 c41 -22 90 -71 112 -112 16 -29 17
-140 17 -1706 0 -1566 -1 -1677 -17 -1706 -22 -41 -71 -90 -112 -112 -29 -16
-138 -17 -1656 -17 -1518 0 -1627 1 -1656 17 -41 22 -90 71 -112 112 -16 29
-17 142 -20 1671 -2 902 0 1659 3 1682 7 47 46 110 89 144 64 50 -10 48 1711
46 1502 -2 1612 -3 1641 -19z"/>
<path d="M3335 3696 c-101 -44 -125 -178 -46 -257 112 -113 296 -12 267 146
-18 94 -131 151 -221 111z m105 -106 c11 -11 20 -29 20 -40 0 -11 -9 -29 -20
-40 -11 -11 -29 -20 -40 -20 -11 0 -29 9 -40 20 -11 11 -20 29 -20 40 0 11 9
29 20 40 11 11 29 20 40 20 11 0 29 -9 40 -20z"/>
<path d="M345 3676 c-101 -44 -125 -178 -46 -257 112 -113 296 -12 267 146
-18 94 -131 151 -221 111z m105 -106 c11 -11 20 -29 20 -40 0 -26 -34 -60 -60
-60 -26 0 -60 34 -60 60 0 11 9 29 20 40 11 11 29 20 40 20 11 0 29 -9 40 -20z"/>
<path d="M2177 3433 c-14 -13 -7 -43 12 -53 11 -5 36 -10 55 -10 143 0 302
-156 322 -316 7 -57 22 -78 48 -68 36 14 9 159 -45 246 -38 59 -114 130 -170
159 -76 39 -202 63 -222 42z"/>
<path d="M2184 3256 c-29 -22 -13 -50 33 -58 97 -16 173 -92 173 -173 0 -34
26 -58 51 -45 56 31 -31 209 -124 253 -55 26 -114 36 -133 23z"/>
<path d="M2058 3060 c-52 -28 -81 -73 -86 -135 -6 -68 18 -119 75 -158 l43
-31 0 -73 0 -74 -62 8 c-156 20 -297 -3 -417 -68 -65 -35 -113 -37 -202 -9
-107 33 -203 106 -310 236 -14 17 -35 37 -47 43 -19 10 -26 8 -47 -13 -21 -21
-25 -34 -25 -86 0 -167 60 -356 142 -446 l19 -22 -78 1 c-100 2 -169 -28 -254
-110 -77 -73 -86 -94 -59 -138 35 -57 126 -132 188 -155 78 -30 194 -25 270
12 l52 25 0 -206 c1 -279 13 -429 44 -519 69 -204 252 -366 471 -418 92 -21
255 -14 338 15 110 39 180 83 262 166 86 86 129 156 166 270 20 65 22 93 27
373 3 222 7 302 16 299 89 -33 124 -39 195 -35 60 3 88 11 129 33 64 35 172
145 172 175 0 13 -26 48 -66 90 -82 85 -159 123 -251 124 -35 1 -63 2 -63 3 0
1 18 28 40 59 22 31 49 82 61 113 48 128 66 342 33 376 -22 22 -62 12 -92 -23
-67 -78 -152 -156 -203 -188 -145 -88 -278 -98 -336 -26 -8 10 -13 47 -13 99
0 78 2 84 27 106 85 69 109 120 93 191 -10 45 -34 81 -73 110 -39 29 -131 32
-179 6z m132 -100 c11 -11 20 -33 20 -50 0 -63 -77 -94 -120 -48 -59 64 38
160 100 98z m-901 -511 c36 -18 82 -37 103 -43 l38 -12 -47 -69 c-25 -39 -47
-71 -48 -73 -9 -10 -61 16 -100 50 -50 44 -111 157 -121 227 l-7 43 59 -45
c32 -25 88 -60 123 -78z m1434 84 c-8 -57 -56 -155 -99 -202 -31 -35 -98 -81
-118 -81 -6 0 -96 129 -96 138 0 4 29 18 65 31 65 23 198 103 224 134 22 27
30 20 24 -20z m-663 -60 c184 -50 341 -213 382 -394 8 -36 12 -157 12 -364 l1
-310 -538 -3 -538 -2 3 337 c4 321 5 341 26 398 100 268 381 414 652 338z
m-904 -372 c50 -23 84 -64 77 -92 -12 -44 -102 -89 -180 -89 -47 0 -83 15
-151 63 l-42 31 32 33 c69 71 177 94 264 54z m1692 0 c20 -11 50 -33 66 -50
l30 -31 -29 -30 c-63 -66 -160 -87 -247 -53 -57 22 -88 51 -88 83 0 77 174
129 268 81z m-404 -848 c-28 -119 -76 -203 -162 -286 -215 -204 -560 -191
-762 29 -56 62 -116 178 -126 242 l-7 42 532 0 531 0 -6 -27z"/>
<path d="M1551 1856 c-54 -30 -67 -106 -26 -154 30 -36 75 -47 120 -28 41 17
55 42 55 96 0 78 -80 124 -149 86z"/>
<path d="M2181 1844 c-60 -50 -46 -140 26 -170 106 -45 189 91 103 169 -40 36
-87 36 -129 1z"/>
<path d="M1690 1110 l0 -80 50 0 50 0 0 80 0 80 -50 0 -50 0 0 -80z"/>
<path d="M2020 1105 l0 -75 50 0 50 0 0 75 0 75 -50 0 -50 0 0 -75z"/>
<path d="M355 526 c-101 -44 -125 -178 -46 -257 65 -65 157 -65 222 0 124 124
-15 327 -176 257z m105 -106 c11 -11 20 -29 20 -40 0 -26 -34 -60 -60 -60 -11
0 -29 9 -40 20 -11 11 -20 29 -20 40 0 11 9 29 20 40 11 11 29 20 40 20 11 0
29 -9 40 -20z"/>
<path d="M3385 526 c-101 -44 -125 -178 -46 -257 112 -113 296 -12 267 146
-18 94 -131 151 -221 111z m105 -106 c11 -11 20 -29 20 -40 0 -26 -34 -60 -60
-60 -11 0 -29 9 -40 20 -11 11 -20 29 -20 40 0 11 9 29 20 40 11 11 29 20 40
20 11 0 29 -9 40 -20z"/>
</g>
</svg>
